<svg width="32" height="32" viewBox="0 0 32 32" fill="none" xmlns="http://www.w3.org/2000/svg">
<path d="M14.5 25.7334L5.70001 16.9334C5.56668 16.8 5.47201 16.6556 5.41601 16.5C5.3609 16.3445 5.33334 16.1778 5.33334 16C5.33334 15.8223 5.3609 15.6556 5.41601 15.5C5.47201 15.3445 5.56668 15.2 5.70001 15.0667L14.5 6.26669C14.7445 6.02225 15.0498 5.89425 15.416 5.8827C15.7831 5.87203 16.1 6.00003 16.3667 6.26669C16.6333 6.51114 16.7725 6.81647 16.784 7.1827C16.7947 7.54981 16.6667 7.8667 16.4 8.13336L9.86668 14.6667H24.7667C25.1445 14.6667 25.4613 14.7943 25.7173 15.0494C25.9725 15.3054 26.1 15.6223 26.1 16C26.1 16.3778 25.9725 16.6943 25.7173 16.9494C25.4613 17.2054 25.1445 17.3334 24.7667 17.3334H9.86668L16.4 23.8667C16.6445 24.1111 16.7725 24.4223 16.784 24.8C16.7947 25.1778 16.6667 25.4889 16.4 25.7334C16.1556 26 15.8445 26.1334 15.4667 26.1334C15.0889 26.1334 14.7667 26 14.5 25.7334Z" fill="#D9D9D9"/>
</svg>
