<svg width="60" height="60" viewBox="0 0 60 60" fill="none" xmlns="http://www.w3.org/2000/svg">
<g clip-path="url(#clip0_43_535)">
<path d="M30 60C46.5685 60 60 46.5685 60 30C60 13.4315 46.5685 0 30 0C13.4315 0 0 13.4315 0 30C0 46.5685 13.4315 60 30 60Z" fill="#D9D9D9"/>
<path d="M60 30C60 28.6252 59.9074 27.2719 59.7284 25.9462L49.0781 15.2961L46.1035 19.123L33.093 6.1123L6.11226 33.0931L17.8232 44.804L15.2959 49.0783L25.9461 59.7284C27.2898 59.9097 28.6441 60.0004 30 60C46.5685 60 60 46.5686 60 30Z" fill="#AFAFAF"/>
<path d="M53.8877 33.0931V26.9071L50.6582 26.1223C49.0124 25.7224 47.6725 24.5486 47.0264 22.983L47.0064 22.9346C46.3541 21.3665 46.4664 19.585 47.3497 18.1345L49.0782 15.2962L44.7041 10.922L41.8658 12.6506C40.4153 13.5339 38.6339 13.6462 37.0657 12.9939L37.0173 12.9739C35.4516 12.3279 34.2778 10.988 33.8778 9.34212L33.093 6.11255H26.907L26.1221 9.34212C25.7222 10.9879 24.5484 12.3278 22.9828 12.9739L22.9344 12.9939C21.3663 13.6462 19.5848 13.5339 18.1343 12.6506L15.296 10.922L10.9219 15.2962L12.6504 18.1346C13.5337 19.5851 13.646 21.3665 12.9937 22.9347L12.9737 22.9831C12.3278 24.5488 10.9879 25.7226 9.34195 26.1224L6.11238 26.9072V33.0932L9.34195 33.878C10.9877 34.278 12.3277 35.4517 12.9737 37.0174L12.9937 37.0658C13.646 38.6338 13.5337 40.4153 12.6504 41.8659L10.9219 44.7042L15.296 49.0783L18.1344 47.3498C19.585 46.4664 21.3664 46.3541 22.9345 47.0064L22.9829 47.0265C24.5487 47.6724 25.7223 49.0123 26.1223 50.6582L26.9071 53.8878H33.0932L33.878 50.6582C34.2779 49.0124 35.4517 47.6725 37.0173 47.0265L37.0657 47.0064C38.6338 46.3541 40.4153 46.4664 41.8658 47.3498L44.7042 49.0783L49.0784 44.7042L47.3498 41.8659C46.4665 40.4153 46.3542 38.634 47.0065 37.0658L47.0265 37.0174C47.6725 35.4516 49.0124 34.278 50.6583 33.878L53.8877 33.0931ZM30 39.5724C24.7133 39.5724 20.4277 35.2867 20.4277 30C20.4277 24.7134 24.7133 20.4276 30 20.4276C35.2867 20.4276 39.5723 24.7133 39.5723 30C39.5723 35.2867 35.2867 39.5724 30 39.5724Z" fill="#636978"/>
<path d="M50.6582 26.1222C49.0124 25.7222 47.6723 24.5485 47.0264 22.9829L47.0064 22.9345C46.3541 21.3664 46.4664 19.5849 47.3497 18.1343L49.0782 15.2961L44.7041 10.9219L41.8658 12.6504C40.4153 13.5338 38.6339 13.6461 37.0657 12.9938L37.0173 12.9738C35.4516 12.3278 34.2779 10.9879 33.8778 9.342L33.093 6.11243H30.0142V20.4281C35.2943 20.4357 39.5725 24.7182 39.5725 30.0002C39.5725 35.2822 35.2944 39.5645 30.0142 39.5722V53.8878H33.093L33.8778 50.6582C34.2778 49.0124 35.4516 47.6725 37.0173 47.0265L37.0657 47.0064C38.6338 46.3541 40.4153 46.4664 41.8658 47.3498L44.7042 49.0783L49.0784 44.7041L47.3498 41.8659C46.4665 40.4153 46.3542 38.634 47.0065 37.0657L47.0265 37.0174C47.6725 35.4516 49.0124 34.278 50.6583 33.878L53.8878 33.0932V26.9072L50.6582 26.1222Z" fill="#414952"/>
<path d="M30 46.1425C21.099 46.1425 13.8575 38.901 13.8575 30C13.8575 21.099 21.099 13.8575 30 13.8575C38.901 13.8575 46.1425 21.099 46.1425 30C46.1425 38.901 38.901 46.1425 30 46.1425ZM30 17.3732C23.0375 17.3732 17.3732 23.0375 17.3732 30C17.3732 36.9625 23.0375 42.6268 30 42.6268C36.9625 42.6268 42.6268 36.9625 42.6268 30C42.6268 23.0375 36.9625 17.3732 30 17.3732Z" fill="#9196AA"/>
<path d="M46.1425 30C46.1425 21.1037 38.9086 13.8654 30.0142 13.8578V17.3734C36.9702 17.381 42.6268 23.0424 42.6268 30C42.6268 36.9577 36.9701 42.619 30.0142 42.6266V46.1422C38.9086 46.1346 46.1425 38.8963 46.1425 30Z" fill="#707789"/>
</g>
<defs>
<clipPath id="clip0_43_535">
<rect width="60" height="60" fill="white"/>
</clipPath>
</defs>
</svg>
